<svg width="25" height="25" viewBox="0 0 25 25" fill="none" xmlns="http://www.w3.org/2000/svg">
<path d="M22.139 8.24199C22.2498 8.24185 22.3571 8.2033 22.4427 8.1329C22.5283 8.0625 22.5868 7.96462 22.6083 7.85591C22.6298 7.7472 22.613 7.6344 22.5606 7.53673C22.5083 7.43906 22.4237 7.36256 22.3213 7.32027C22.2188 7.27797 22.1049 7.27249 21.9989 7.30476C21.8929 7.33704 21.8013 7.40507 21.7399 7.49727C21.6784 7.58946 21.6508 7.70011 21.6618 7.81038C21.6727 7.92065 21.7216 8.0237 21.8 8.10199C21.8902 8.19141 22.012 8.24171 22.139 8.24199Z" fill="white"/>
<path d="M9.41606 21.261H9.40906C9.28202 21.261 9.16019 21.3115 9.07036 21.4013C8.98053 21.4911 8.93005 21.613 8.93005 21.74C8.93005 21.8671 8.98053 21.9889 9.07036 22.0787C9.16019 22.1686 9.28202 22.219 9.40906 22.219H9.41606C9.5431 22.219 9.66493 22.1686 9.75476 22.0787C9.84459 21.9889 9.89505 21.8671 9.89505 21.74C9.89505 21.613 9.84459 21.4911 9.75476 21.4013C9.66493 21.3115 9.5431 21.261 9.41606 21.261Z" fill="white"/>
<path d="M24.535 19.244V3.35401C24.5345 2.9734 24.3832 2.60851 24.1142 2.33919C23.8453 2.06987 23.4806 1.91807 23.1 1.91701H21.456V1.62901C21.456 1.19684 21.2843 0.782372 20.9787 0.476781C20.6731 0.171191 20.2587 -0.000488281 19.8265 -0.000488281C19.3943 -0.000488281 18.9799 0.171191 18.6743 0.476781C18.3687 0.782372 18.197 1.19684 18.197 1.62901V1.91701H13.891V1.62901C13.891 1.19684 13.7193 0.782372 13.4137 0.476781C13.1081 0.171191 12.6937 -0.000488281 12.2615 -0.000488281C11.8293 -0.000488281 11.4149 0.171191 11.1093 0.476781C10.8037 0.782372 10.632 1.19684 10.632 1.62901V1.91701H6.325V1.62901C6.325 1.19684 6.15332 0.782372 5.84773 0.476781C5.54214 0.171191 5.12767 -0.000488257 4.6955 -0.000488257C4.26333 -0.000488257 3.84886 0.171191 3.54327 0.476781C3.23768 0.782372 3.066 1.19684 3.066 1.62901V1.91701H1.438C1.05687 1.91728 0.691417 2.06873 0.421826 2.33813C0.152235 2.60753 0.000529619 2.97289 0 3.35401L0 23.1C0.000264884 23.4813 0.151853 23.8469 0.421473 24.1165C0.691093 24.3862 1.0567 24.5377 1.438 24.538H19.244C19.3069 24.5381 19.3693 24.5258 19.4275 24.5018C19.4856 24.4778 19.5385 24.4425 19.583 24.398L24.395 19.586C24.4399 19.5412 24.4754 19.4878 24.4994 19.4291C24.5234 19.3704 24.5355 19.3075 24.535 19.244ZM19.156 1.62901C19.156 1.45105 19.2267 1.28038 19.3525 1.15454C19.4784 1.02871 19.649 0.958012 19.827 0.958012C20.005 0.958012 20.1756 1.02871 20.3015 1.15454C20.4273 1.28038 20.498 1.45105 20.498 1.62901V3.97701C20.498 4.15497 20.4273 4.32564 20.3015 4.45148C20.1756 4.57732 20.005 4.64801 19.827 4.64801C19.649 4.64801 19.4784 4.57732 19.3525 4.45148C19.2267 4.32564 19.156 4.15497 19.156 3.97701V1.62901ZM11.591 1.62901C11.591 1.45105 11.6617 1.28038 11.7875 1.15454C11.9134 1.02871 12.084 0.958012 12.262 0.958012C12.44 0.958012 12.6106 1.02871 12.7365 1.15454C12.8623 1.28038 12.933 1.45105 12.933 1.62901V3.97701C12.933 4.15497 12.8623 4.32564 12.7365 4.45148C12.6106 4.57732 12.44 4.64801 12.262 4.64801C12.084 4.64801 11.9134 4.57732 11.7875 4.45148C11.6617 4.32564 11.591 4.15497 11.591 3.97701V1.62901ZM4.026 1.62901C4.026 1.45105 4.09669 1.28038 4.22253 1.15454C4.34837 1.02871 4.51904 0.958012 4.697 0.958012C4.87496 0.958012 5.04563 1.02871 5.17147 1.15454C5.29731 1.28038 5.368 1.45105 5.368 1.62901V3.97701C5.368 4.15497 5.29731 4.32564 5.17147 4.45148C5.04563 4.57732 4.87496 4.64801 4.697 4.64801C4.51904 4.64801 4.34837 4.57732 4.22253 4.45148C4.09669 4.32564 4.026 4.15497 4.026 3.97701V1.62901ZM0.958 23.1V22.221H7.5C7.5629 22.221 7.62519 22.2086 7.68331 22.1845C7.74142 22.1605 7.79422 22.1252 7.8387 22.0807C7.88318 22.0362 7.91847 21.9834 7.94254 21.9253C7.96661 21.8672 7.979 21.8049 7.979 21.742C7.979 21.6791 7.96661 21.6168 7.94254 21.5587C7.91847 21.5006 7.88318 21.4478 7.8387 21.4033C7.79422 21.3588 7.74142 21.3235 7.68331 21.2995C7.62519 21.2754 7.5629 21.263 7.5 21.263H0.958V8.24201H20.222C20.349 8.24201 20.4709 8.19155 20.5607 8.10172C20.6505 8.01189 20.701 7.89005 20.701 7.76301C20.701 7.63597 20.6505 7.51414 20.5607 7.42431C20.4709 7.33448 20.349 7.28401 20.222 7.28401H0.958V3.35401C0.958264 3.22705 1.00882 3.10537 1.09859 3.0156C1.18836 2.92583 1.31004 2.87528 1.437 2.87501H3.067V3.97501C3.067 4.40718 3.23868 4.82165 3.54427 5.12724C3.84986 5.43283 4.26433 5.60451 4.6965 5.60451C5.12867 5.60451 5.54314 5.43283 5.84873 5.12724C6.15432 4.82165 6.326 4.40718 6.326 3.97501V2.87501H10.633V3.97501C10.633 4.40718 10.8047 4.82165 11.1103 5.12724C11.4159 5.43283 11.8303 5.60451 12.2625 5.60451C12.6947 5.60451 13.1091 5.43283 13.4147 5.12724C13.7203 4.82165 13.892 4.40718 13.892 3.97501V2.87501H18.2V3.97501C18.2 4.40718 18.3717 4.82165 18.6773 5.12724C18.9829 5.43283 19.3973 5.60451 19.8295 5.60451C20.2617 5.60451 20.6761 5.43283 20.9817 5.12724C21.2873 4.82165 21.459 4.40718 21.459 3.97501V2.87501H23.1C23.227 2.87528 23.3486 2.92583 23.4384 3.0156C23.5282 3.10537 23.5787 3.22705 23.579 3.35401V18.765H20.2C19.8197 18.7661 19.4554 18.9176 19.1865 19.1865C18.9176 19.4554 18.7661 19.8198 18.765 20.2V23.574H1.438C1.31173 23.574 1.19054 23.5243 1.10069 23.4356C1.01085 23.3468 0.959578 23.2263 0.958 23.1ZM19.723 22.9V20.2C19.7233 20.0731 19.7738 19.9514 19.8636 19.8616C19.9534 19.7718 20.075 19.7213 20.202 19.721H22.902L19.723 22.9Z" fill="white"/>
<path d="M11.304 13.912C11.304 13.6507 11.2613 13.4427 11.176 13.288C11.096 13.1333 10.9973 13.0133 10.88 12.928C10.768 12.8427 10.6507 12.7867 10.528 12.76C10.4107 12.7333 10.312 12.72 10.232 12.72C10.1253 12.72 10.008 12.7387 9.88 12.776C9.75733 12.808 9.64 12.8693 9.528 12.96C9.416 13.0507 9.32267 13.1733 9.248 13.328C9.17333 13.4773 9.136 13.672 9.136 13.912V16.096C9.136 16.4 9.18667 16.6373 9.288 16.808C9.38933 16.9787 9.504 17.104 9.632 17.184C9.76 17.264 9.88267 17.312 10 17.328C10.1227 17.344 10.2027 17.352 10.24 17.352C10.4053 17.352 10.5547 17.3173 10.688 17.248C10.8213 17.1787 10.9387 17.088 11.04 16.976C11.1733 16.8213 11.2507 16.6747 11.272 16.536C11.2933 16.3973 11.304 16.2507 11.304 16.096V13.912ZM12.136 16.096C12.136 16.3253 12.112 16.5493 12.064 16.768C12.016 16.9867 11.896 17.208 11.704 17.432C11.6347 17.5067 11.552 17.584 11.456 17.664C11.36 17.744 11.2507 17.8187 11.128 17.888C11.0053 17.952 10.8667 18.0053 10.712 18.048C10.5573 18.0907 10.3893 18.112 10.208 18.112C10.0213 18.112 9.848 18.088 9.688 18.04C9.53333 17.9973 9.39467 17.9413 9.272 17.872C9.14933 17.7973 9.04 17.72 8.944 17.64C8.85333 17.5547 8.776 17.472 8.712 17.392C8.61067 17.2693 8.53067 17.144 8.472 17.016C8.41867 16.888 8.37867 16.7653 8.352 16.648C8.33067 16.5253 8.31733 16.4133 8.312 16.312C8.30667 16.2053 8.304 16.112 8.304 16.032V13.968C8.304 13.5947 8.368 13.28 8.496 13.024C8.62933 12.7627 8.792 12.5547 8.984 12.4C9.18133 12.2453 9.392 12.1333 9.616 12.064C9.84533 11.9947 10.0533 11.96 10.24 11.96C10.4587 11.96 10.68 12.0027 10.904 12.088C11.1333 12.168 11.3387 12.2907 11.52 12.456C11.7013 12.616 11.848 12.8187 11.96 13.064C12.0773 13.3093 12.136 13.592 12.136 13.912V16.096ZM13.4455 16.256C13.4562 16.5173 13.5122 16.7227 13.6135 16.872C13.7148 17.016 13.8268 17.1253 13.9495 17.2C14.0775 17.2693 14.1975 17.312 14.3095 17.328C14.4268 17.344 14.5068 17.352 14.5495 17.352C14.7148 17.352 14.8642 17.32 14.9975 17.256C15.1308 17.1867 15.2428 17.1013 15.3335 17C15.4242 16.8933 15.4935 16.776 15.5415 16.648C15.5895 16.52 15.6135 16.392 15.6135 16.264C15.6135 16.104 15.5815 15.9573 15.5175 15.824C15.4588 15.6907 15.3788 15.5787 15.2775 15.488C15.1762 15.3973 15.0588 15.328 14.9255 15.28C14.7922 15.2267 14.6535 15.2 14.5095 15.2H14.2055V14.368H14.4935C14.7068 14.368 14.8722 14.328 14.9895 14.248C15.1068 14.1627 15.1922 14.0693 15.2455 13.968C15.3042 13.8667 15.3362 13.7733 15.3415 13.688C15.3522 13.6027 15.3575 13.5547 15.3575 13.544C15.3575 13.4373 15.3388 13.336 15.3015 13.24C15.2642 13.1387 15.2108 13.0507 15.1415 12.976C15.0722 12.9013 14.9868 12.8427 14.8855 12.8C14.7895 12.752 14.6828 12.728 14.5655 12.728C14.5228 12.728 14.4615 12.736 14.3815 12.752C14.3068 12.7627 14.2268 12.7947 14.1415 12.848C14.0562 12.9013 13.9788 12.984 13.9095 13.096C13.8402 13.208 13.7948 13.3627 13.7735 13.56H12.9415C12.9628 13.224 13.0402 12.952 13.1735 12.744C13.3068 12.536 13.4615 12.376 13.6375 12.264C13.8135 12.1467 13.9895 12.0693 14.1655 12.032C14.3415 11.9893 14.4828 11.968 14.5895 11.968C14.8242 11.968 15.0375 12.0107 15.2295 12.096C15.4268 12.176 15.5948 12.2907 15.7335 12.44C15.8775 12.584 15.9895 12.7573 16.0695 12.96C16.1495 13.1573 16.1895 13.3733 16.1895 13.608C16.1895 13.768 16.1735 13.9067 16.1415 14.024C16.1095 14.1413 16.0668 14.2453 16.0135 14.336C15.9655 14.4213 15.9095 14.4987 15.8455 14.568C15.7815 14.632 15.7148 14.696 15.6455 14.76C15.8162 14.8667 15.9522 14.9867 16.0535 15.12C16.1602 15.2533 16.2428 15.3867 16.3015 15.52C16.3602 15.6533 16.3975 15.784 16.4135 15.912C16.4348 16.0347 16.4455 16.1413 16.4455 16.232C16.4455 16.5307 16.3922 16.7973 16.2855 17.032C16.1842 17.2613 16.0455 17.456 15.8695 17.616C15.6935 17.776 15.4882 17.8987 15.2535 17.984C15.0242 18.0693 14.7815 18.112 14.5255 18.112C14.2748 18.112 14.0348 18.0667 13.8055 17.976C13.5762 17.8853 13.3735 17.7573 13.1975 17.592C13.0215 17.4267 12.8802 17.232 12.7735 17.008C12.6668 16.7787 12.6135 16.528 12.6135 16.256H13.4455Z" fill="white"/>
</svg>
